<?xml version="1.0" encoding="UTF-8"?>
<svg id="Layer_2" xmlns="http://www.w3.org/2000/svg" viewBox="0 0 392 115">
    <defs>
        <style>
            .cls-1 {
            fill: #bfa1a9;
            }

            .cls-2 {
            fill: #a69096;
            }
        </style>
    </defs>
    <g id="Layer_2-2" data-name="Layer_2">
        <g>
            <circle class="cls-2" cx="57.5" cy="57.5" r="57.5"/>
            <rect class="cls-2" x="31" y="32" width="361" height="51"/>
            <g>
                <path class="cls-1"
                      d="M65.54,35.46c4.01,2.14,7.09,5.12,9.25,8.96,2.16,3.84,3.24,8.23,3.24,13.18s-1.09,9.26-3.28,13.1c-2.18,3.84-5.28,6.85-9.29,9.04-4.01,2.19-8.65,3.28-13.93,3.28h-20.09v-50.76h20.09c5.33,0,10,1.07,14,3.2ZM60.18,67.17c2.35-2.26,3.53-5.45,3.53-9.58s-1.18-7.4-3.53-9.68c-2.35-2.28-5.59-3.42-9.72-3.42h-4.9v26.06h4.9c4.13,0,7.37-1.13,9.72-3.38Z"/>
                <path class="cls-1"
                      d="M98.12,43.56v8.28h16.2v10.73h-16.2v9.14h18.36v11.3h-32.47v-50.76h32.47v11.3h-18.36Z"/>
                <path class="cls-1"
                      d="M127.71,79.31c-3.79-2.81-5.83-6.83-6.12-12.06h15.05c.14,1.78.67,3.07,1.58,3.89.91.82,2.09,1.22,3.53,1.22,1.3,0,2.36-.32,3.2-.97.84-.65,1.26-1.55,1.26-2.7,0-1.49-.7-2.64-2.09-3.46-1.39-.82-3.65-1.73-6.77-2.74-3.31-1.1-5.99-2.17-8.03-3.2-2.04-1.03-3.82-2.54-5.33-4.54-1.51-1.99-2.27-4.6-2.27-7.81s.82-6.06,2.45-8.39c1.63-2.33,3.89-4.09,6.77-5.29,2.88-1.2,6.14-1.8,9.79-1.8,5.9,0,10.62,1.38,14.15,4.14,3.53,2.76,5.41,6.64,5.65,11.63h-15.34c-.05-1.54-.52-2.69-1.4-3.46-.89-.77-2.03-1.15-3.42-1.15-1.06,0-1.92.31-2.59.94-.67.62-1.01,1.51-1.01,2.66,0,.96.37,1.79,1.12,2.48.74.7,1.67,1.3,2.77,1.8,1.1.5,2.74,1.14,4.9,1.91,3.21,1.1,5.87,2.2,7.96,3.28,2.09,1.08,3.89,2.59,5.4,4.54,1.51,1.94,2.27,4.4,2.27,7.38s-.76,5.74-2.27,8.14c-1.51,2.4-3.7,4.3-6.55,5.69-2.86,1.39-6.23,2.09-10.12,2.09-5.9,0-10.75-1.4-14.54-4.21Z"/>
                <path class="cls-1"
                      d="M226.64,32.25v50.76h-14.11v-28.01l-9.58,28.01h-11.81l-9.65-28.22v28.22h-14.11v-50.76h17.06l12.74,32.98,12.46-32.98h16.99Z"/>
                <path class="cls-1"
                      d="M245.57,80.17c-3.98-2.23-7.14-5.33-9.47-9.29-2.33-3.96-3.49-8.44-3.49-13.43s1.16-9.47,3.49-13.43c2.33-3.96,5.48-7.04,9.47-9.25,3.98-2.21,8.35-3.31,13.1-3.31s9.18,1.1,13.14,3.31c3.96,2.21,7.09,5.29,9.4,9.25,2.3,3.96,3.46,8.44,3.46,13.43s-1.15,9.47-3.46,13.43c-2.3,3.96-5.45,7.06-9.43,9.29-3.98,2.23-8.35,3.35-13.1,3.35s-9.12-1.12-13.1-3.35ZM267.21,66.89c2.09-2.35,3.13-5.5,3.13-9.43s-1.04-7.21-3.13-9.54c-2.09-2.33-4.93-3.49-8.53-3.49s-6.5,1.16-8.57,3.49c-2.06,2.33-3.1,5.51-3.1,9.54s1.03,7.14,3.1,9.47c2.06,2.33,4.92,3.49,8.57,3.49s6.44-1.18,8.53-3.53Z"/>
                <path class="cls-1"
                      d="M337.66,83.01h-14.11l-18.79-28.37v28.37h-14.11v-50.76h14.11l18.79,28.73v-28.73h14.11v50.76Z"/>
                <path class="cls-1"
                      d="M379.46,35.46c4.01,2.14,7.09,5.12,9.25,8.96,2.16,3.84,3.24,8.23,3.24,13.18s-1.09,9.26-3.28,13.1c-2.18,3.84-5.28,6.85-9.29,9.04-4.01,2.19-8.65,3.28-13.93,3.28h-20.09v-50.76h20.09c5.33,0,10,1.07,14,3.2ZM374.09,67.17c2.35-2.26,3.53-5.45,3.53-9.58s-1.18-7.4-3.53-9.68c-2.35-2.28-5.59-3.42-9.72-3.42h-4.9v26.06h4.9c4.13,0,7.37-1.13,9.72-3.38Z"/>
            </g>
        </g>
    </g>
</svg>