<?xml version="1.0" encoding="UTF-8"?>
<svg id="Layer_2" xmlns="http://www.w3.org/2000/svg" viewBox="0 0 163 163">
    <defs>
        <style>
            .cls-1 {
            fill: #bfa1a9;
            }

            .cls-2 {
            fill: #b0949c;
            }

            .cls-3 {
            fill: #a69096;
            }
        </style>
    </defs>
    <g id="Layer_2-2" data-name="Layer_2">
        <g>
            <path class="cls-3"
                  d="M147.49,33.67c-1.21-1.67-2.48-3.29-3.81-4.85-.04-.04-.07-.09-.11-.13-5.79-6.81-12.67-12.63-20.37-17.22-.91-.55-1.84-1.08-2.78-1.59-.62-.34-1.25-.68-1.89-1C107.42,3.2,94.84,0,81.5,0,36.49,0,0,36.49,0,81.5s36.49,81.5,81.5,81.5,81.5-36.49,81.5-81.5c0-17.87-5.75-34.4-15.51-47.83ZM61.59,124.57c-3.26,3.89-8.58,6.43-14.59,6.43-3.96,0-.51-7.23-3.48-9.1-4.49-2.82-14.52-1.25-14.52-6.4,0-4.34,2.07-8.26,5.41-11.07,3.25-2.74,7.69-4.43,12.59-4.43,9.94,0,18,6.94,18,15.5,0,3.39-1.26,6.52-3.41,9.07Z"/>
            <path class="cls-2"
                  d="M60.1,44.06c-3.01,7.33-9.29,11.91-14.9,11.32,5.04-.52,10.24-4.85,12.9-11.32,3.46-8.43,1.3-17.3-4.83-19.82-.8-.32-1.62-.53-2.46-.62,1.53-.16,3.04.04,4.46.62,6.13,2.52,8.29,11.39,4.83,19.82Z"/>
            <path class="cls-1"
                  d="M58.1,44.06c-2.66,6.47-7.86,10.8-12.9,11.32h-.01c-1.53.16-3.04-.04-4.46-.62-6.13-2.52-8.29-11.39-4.83-19.82,3.01-7.33,9.29-11.91,14.9-11.32h.01c.84.09,1.66.3,2.46.62,6.13,2.52,8.29,11.39,4.83,19.82Z"/>
            <ellipse class="cls-1" cx="68.09" cy="34.34" rx="3.96" ry="2.62"
                     transform="translate(10.45 84.26) rotate(-67.66)"/>
            <ellipse class="cls-1" cx="88.09" cy="72.34" rx="2.62" ry="3.96"
                     transform="translate(-25.78 67.21) rotate(-36.81)"/>
            <ellipse class="cls-1" cx="68.09" cy="98.34" rx="1.65" ry="1.1"
                     transform="translate(-33.01 34.42) rotate(-23)"/>
            <ellipse class="cls-1" cx="94.31" cy="70.87" rx="1.28" ry="1.12"
                     transform="translate(-23.66 70.64) rotate(-36.81)"/>
            <ellipse class="cls-1" cx="33.09" cy="93.34" rx="2.62" ry="3.96"
                     transform="translate(-19.76 9.59) rotate(-12.73)"/>
            <path class="cls-2"
                  d="M118.27,103.85c3.38-4.17,4.84-10.66,2.67-17.18l-.09-.22c-1.17-3.43-4.46-3.65-6.89-6.75-1.36-1.59-1.98-4.09-2.91-5.78-2.04-3.39-7.43-1.85-10.51-.46-.75.4-1.45.86-2.08,1.38,1.08-1.35,2.43-2.5,4.08-3.38,3.08-1.39,8.47-2.93,10.51.46.93,1.69,1.55,4.19,2.91,5.78,2.43,3.1,5.72,3.32,6.89,6.75l.09.22c2.56,7.69.07,15.34-4.67,19.18Z"/>
            <path class="cls-1"
                  d="M118.27,103.85h-.01c-4.56,5.63-12.63,7.04-20.04-1.36-6.26-7.15-7.67-21.3.24-27.65.63-.52,1.33-.98,2.08-1.38,3.08-1.39,8.47-2.93,10.51.46.93,1.69,1.55,4.19,2.91,5.78,2.43,3.1,5.72,3.32,6.89,6.75l.09.22c2.17,6.52.71,13.01-2.67,17.18Z"/>
            <path class="cls-1"
                  d="M143.57,28.69c-1.48.2-3.01.31-4.59.31-11.59,0-20.98-5.84-20.98-13.03,0-2.19.87-4.27,2.42-6.09.21.11.42.23.63.35.34.18.67.37,1,.57.39.22.77.44,1.15.67,3.85,2.29,7.49,4.9,10.9,7.78.43.36.85.72,1.27,1.09,2.93,2.58,5.67,5.37,8.2,8.35Z"/>
            <path class="cls-2"
                  d="M143.68,28.82c-2.65.76-5.6,1.18-8.7,1.18-11.59,0-20.98-5.84-20.98-13.03,0-3.05,1.69-5.87,4.53-8.09.64.32,1.27.66,1.89,1-1.55,1.82-2.42,3.9-2.42,6.09,0,7.19,9.39,13.03,20.98,13.03,1.58,0,3.11-.11,4.59-.31.04.04.07.09.11.13Z"/>
            <path class="cls-2"
                  d="M67,113.5c0,4.34-2.07,8.26-5.41,11.07,2.15-2.55,3.41-5.68,3.41-9.07,0-8.56-8.06-15.5-18-15.5-4.9,0-9.34,1.69-12.59,4.43,3.26-3.89,8.58-6.43,14.59-6.43,9.94,0,18,6.94,18,15.5Z"/>
            <path class="cls-1"
                  d="M65,115.5c0,3.39-1.26,6.52-3.41,9.07-3.26,3.89-8.58,6.43-14.59,6.43-3.96,0-.51-7.23-3.48-9.1-4.49-2.82-14.52-1.25-14.52-6.4,0-4.34,2.07-8.26,5.41-11.07,3.25-2.74,7.69-4.43,12.59-4.43,9.94,0,18,6.94,18,15.5Z"/>
        </g>
    </g>
</svg>