<?xml version="1.0" encoding="UTF-8"?>
<svg id="Layer_2" xmlns="http://www.w3.org/2000/svg" viewBox="0 0 375 225">
    <defs>
        <style>
            .cls-1 {
            fill: #847387;
            }

            .cls-2, .cls-3, .cls-4 {
            fill: none;
            }

            .cls-5 {
            fill: #9e78a5;
            }

            .cls-6 {
            fill: #756678;
            }

            .cls-7 {
            fill: #735778;
            }

            .cls-3 {
            stroke: #735778;
            }

            .cls-3, .cls-4 {
            stroke-miterlimit: 10;
            }

            .cls-8 {
            fill: #a28da6;
            }

            .cls-9 {
            fill: #938096;
            }

            .cls-4 {
            stroke: #6e5573;
            }

            .cls-10 {
            fill: #b19ab5;
            }

            .cls-11 {
            fill: url(#linear-gradient);
            }

            .cls-12 {
            fill: #8e6c94;
            }
        </style>
        <linearGradient id="linear-gradient" x1="12.63" y1="213.46" x2="364.92" y2="10.06"
                        gradientUnits="userSpaceOnUse">
            <stop offset="0" stop-color="#846c89"/>
            <stop offset="1" stop-color="#927198"/>
        </linearGradient>
    </defs>
    <g id="Layer_2-2" data-name="Layer_2">
        <g>
            <path class="cls-11"
                  d="M345,0H30C13.43,0,0,13.43,0,30v165c0,16.57,13.43,30,30,30h315c16.57,0,30-13.43,30-30V30c0-16.57-13.43-30-30-30ZM340,174.54c0,10.75-8.71,19.46-19.46,19.46h-111.08c-10.75,0-19.46-8.71-19.46-19.46v-20.96l150-47.91v68.87Z"/>
            <path class="cls-4"
                  d="M105,45c3.81-5.46,5.83-7.89,7.48-7.61,1.57.27,1.88,1.56,3.99,2.03,2.85.63,5.43-1.03,6.98-2.03,2.14-1.37,5.28-3.39,4.98-6.09-.25-2.29-2.94-4.69-4.98-4.06-1.99.61-2.85,3.94-1.99,6.09,1.1,2.77,5.13,3.79,7.97,3.04,3.79-.99,5.98-5.25,7.97-9.13,2.49-4.84,3.37-4.94,5.1-5.75,3.5-1.62,7.89,1.25,11.16,3.76,4.71,3.61,5.79,6.15,9.79,6.93,1.01.2,4.14.81,5.85-.88,1.71-1.69-.21-4.08,1-9.13.34-1.43,1.65-6.91,5.98-9.13,4.52-2.32,11.89-.85,13.96,4.06,1.52,3.61.18,9.13-2.99,10.14-3.13,1-7.48-2.57-7.97-6.09-.69-4.89,6.01-10,11.96-11.16,6.25-1.22,12.46,1.78,15.95,6.09,3.02,3.72,3.42,7.7,3.99,13.19.4,3.91.61,6.35-1,8.12-2.53,2.77-8.36,2.52-9.97,0-1.75-2.75,1.51-8.25,4.98-11.16,6.67-5.6,18.27-5.12,25.92,0,5.38,3.6,5.04,6.99,9.97,10.14,2.69,1.73,4.34,2.29,5.89,1.91,2.64-.66,2.64-3.4,5.55-4.79,3.14-1.5,7.94-.57,9.18,1.78.7,1.33-.13,2.39-.18,8.71,0,.43,0,.79,0,1.01"/>
            <rect class="cls-6" x="190" y="44" width="150" height="150" rx="19.46" ry="19.46"/>
            <rect class="cls-6" x="37" y="44" width="150" height="150" rx="20" ry="20"/>
            <path class="cls-1" d="M187,146v28c0,11.05-8.95,20-20,20H57c-11.05,0-20-8.95-20-20v-28h150Z"/>
            <rect class="cls-9" x="37" y="146" width="150" height="21"/>
            <path class="cls-1"
                  d="M340,105.67v68.87c0,10.75-8.71,19.46-19.46,19.46h-111.08c-10.75,0-19.46-8.71-19.46-19.46v-20.96l150-47.91Z"/>
            <polygon class="cls-9" points="340 105.67 340 125.67 190 173.58 190 153.58 340 105.67"/>
            <path class="cls-5"
                  d="M125,75v12.75c0,5.38-3.2,10.01-7.81,12.08-.36.17-.74.32-1.12.45-1.35.47-2.81.72-4.32.72-.22,0-.43-.01-.65-.02-.95-.04-1.88-.19-2.77-.43h-.02c-5.65-1.52-9.81-6.67-9.81-12.8v-12.75h26.5Z"/>
            <path class="cls-7"
                  d="M97.77,75.11c3.35,1.32,7.3,2.23,10.72,1.38,1.73-.42,3.19-1.45,4.93-.99,2.15.56,3.84,2.84,6.59,3.36,5.72,1.04,10.34-4.54,10.68-9.86.26-1.85.07-4.54-1.15-5.35-1.44-1.28-5.89-.62-9.01-.4-5.17.44-9.96.68-15.21.31-3.52-.2-7.87-.97-10.46.62-5.08,3.37-2.34,9.06,2.71,10.85l.2.09Z"/>
            <rect class="cls-6" x="102" y="80" width="6" height="1" rx=".5" ry=".5"
                  transform="translate(-13.66 21.97) rotate(-11.22)"/>
            <rect class="cls-6" x="115" y="80" width="6" height="1" rx=".5" ry=".5"
                  transform="translate(17.92 -21.43) rotate(11.22)"/>
            <circle class="cls-7" cx="107" cy="84" r="1"/>
            <circle class="cls-7" cx="117" cy="84" r="1"/>
            <path class="cls-7"
                  d="M112,88c-1.16,2.16-1.21,2.83-1,3,.13.1.29-.03,1,0,.62.02.84.14,1,0,.12-.1.2-.35,0-1"/>
            <path class="cls-3" d="M111,97c1.17-.11,3.21-.49,5-2,.39-.33.72-.67,1-1"/>
            <path class="cls-10"
                  d="M138,146h-50l3-28.03c0-6.61,5.36-11.97,11.97-11.97h18.07c6.61,0,11.97,5.36,11.97,11.97l5,28.03Z"/>
            <rect class="cls-8" x="113" y="118" width="10" height="10"/>
            <path class="cls-2"
                  d="M106.83,100.08c0,.88-.11,1.75-.33,2.6-.04.15-.08.31-.15.45-.12.27-.3.5-.49.74-.43.54-.86,1.09-1.29,1.63-.15.19-.3.38-.49.53"/>
            <path class="cls-5"
                  d="M119.07,105.98h-12.24c.11-.05,1.98-.99,2.17-2.98.12-1.25-.5-2.18-.69-2.45h.02c.89.24,1.82.39,2.77.43.22.01.43.02.65.02,1.51,0,2.97-.25,4.32-.72h.05c-.13.37-.41,1.25-.21,2.31.02.13.05.27.09.41.64,2.19,2.88,2.92,3.07,2.98Z"/>
            <path class="cls-7"
                  d="M115.91,102.59c-.58-.07-1.16-.19-1.73-.35-1.02-.28-2.02-.68-2.95-1.19-.04-.02-.09-.05-.13-.07.22.01.43.02.65.02,1.51,0,2.97-.25,4.32-.72h.05c-.13.37-.41,1.25-.21,2.31Z"/>
            <path class="cls-5"
                  d="M290,122c-.54,2.73-4.15,2.67-21.25,8.5-13.51,4.61-17.02,6.64-19.75,4.5-.4-.32-.75-.69-1.05-1.11-.68-.95-1.11-2.15-1.33-3.47-.58-3.52.33-7.96,1.88-11.17.36-.74.76-1.44,1.2-2.1.98-1.45,2.14-2.71,3.44-3.8,2.54-2.13,5.59-3.59,8.69-4.44,1.84-.51,3.71-.8,5.49-.88.48-.03.96-.04,1.43-.03,11.31.15,22.25,8.9,21.25,14Z"/>
            <ellipse class="cls-5" cx="281.5" cy="105" rx="7.5" ry="8"/>
            <polygon class="cls-12" points="274.42 95.7 280.93 98.73 275.06 102.85 274.42 95.7"/>
            <polygon class="cls-12" points="288.93 95.7 282.42 98.73 288.29 102.85 288.93 95.7"/>
            <path class="cls-12"
                  d="M281.79,97.93c-.11-1.07.17-2.18.76-3.08-.38.1-.72.31-.97.61.05-.35.1-.7.16-1.05-.36.45-.73.9-.99,1.42-.28.56-.43,1.18-.43,1.8.42.04.85.19,1.23.37.04.02.09.04.14.05s.11-.07.1-.12Z"/>
            <circle class="cls-6" cx="278.5" cy="104.5" r="1.5"/>
            <circle class="cls-6" cx="284.5" cy="104.5" r="1.5"/>
            <path class="cls-5"
                  d="M247.95,133.89c-17.44-4.15-22.76-8.29-22.95-11.89-.23-4.37,7.14-7.89,6-11-.88-2.41-6.21-2.76-11.57-2.52-.85-.7-.97-1.97-.27-2.82.7-.85,1.96-.97,2.81-.26,6.18.36,12.11,1.49,13.03,4.6,1.16,3.92-6.6,7.65-6,12,.41,2.98,4.7,6.04,17.62,8.42.22,1.32.65,2.52,1.33,3.47Z"/>
            <rect class="cls-12" x="273" y="124" width="19" height="5" rx="2.5" ry="2.5"
                  transform="translate(-27.03 125.55) rotate(-23.95)"/>
            <rect class="cls-12" x="252" y="131" width="19" height="5" rx="2.5" ry="2.5"
                  transform="translate(-31.68 117.63) rotate(-23.95)"/>
            <path class="cls-12"
                  d="M273.94,121.82h0c-1.13.79-2.69.52-3.48-.61l-8.63-12.3c1.84-.51,3.71-.8,5.49-.88l7.23,10.3c.79,1.13.52,2.69-.61,3.48Z"/>
            <path class="cls-12"
                  d="M260.94,128.82h0c-1.13.79-2.69.52-3.48-.61l-7.76-11.06c.98-1.45,2.14-2.71,3.44-3.8l8.41,11.98c.79,1.13.52,2.69-.61,3.48Z"/>
            <path class="cls-10"
                  d="M96.45,90.69c-4.58,1.85-11.43,3.62-18.45,1.31-.59-.19-1.15-.41-1.7-.64-2.82,1.05-5.97,1.64-9.3,1.64-12.15,0-22-7.84-22-17.5s9.85-17.5,22-17.5,22,7.84,22,17.5c0,3.22-1.09,6.24-3.01,8.83.7.32,1.64.85,3.01,1.67,1.94,1.16,4.49,2.73,7.45,4.69Z"/>
            <circle class="cls-6" cx="63.5" cy="75.5" r="1.5"/>
            <circle class="cls-6" cx="67.5" cy="75.5" r="1.5"/>
            <circle class="cls-6" cx="71.5" cy="75.5" r="1.5"/>
        </g>
    </g>
</svg>