<?xml version="1.0" encoding="UTF-8"?>
<svg id="Layer_2" xmlns="http://www.w3.org/2000/svg" viewBox="0 0 700 400">
    <defs>
        <style>
            .cls-1 {
            font-family: Poppins-Bold, Poppins;
            font-size: 20px;
            font-weight: 700;
            }

            .cls-1, .cls-2 {
            fill: #b38aba;
            }

            .cls-3 {
            fill: #927198;
            }

            .cls-4 {
            fill: #a982b0;
            }
        </style>
    </defs>
    <g id="Layer_2-2" data-name="Layer_2">
        <g>
            <rect class="cls-3" width="700" height="400" rx="30" ry="30"/>
            <polygon class="cls-4"
                     points="700 186.44 700 350.96 619.39 400 562.19 400 468.58 343.05 468.58 194.35 590.79 120 700 186.44"/>
            <text class="cls-1" transform="translate(21.36 44.02)">
                <tspan x="0" y="0">Top Shows</tspan>
            </text>
            <text class="cls-1" transform="translate(21.36 200.02)">
                <tspan x="0" y="0">Most Recent</tspan>
            </text>
            <rect class="cls-2" x="22" y="68" width="153" height="99" rx="20" ry="20"/>
            <path class="cls-2"
                  d="M175,241v59c0,5.34-2.09,10.18-5.5,13.77-3.64,3.84-8.79,6.23-14.5,6.23H42c-11.05,0-20-8.95-20-20v-59c0-11.05,8.95-20,20-20h113c11.05,0,20,8.95,20,20Z"/>
            <path class="cls-2"
                  d="M341,239v59c0,4.96-1.81,9.5-4.8,12.99-3.66,4.29-9.11,7.01-15.2,7.01h-113c-11.05,0-20-8.95-20-20v-59c0-4.27,1.34-8.23,3.63-11.47,3.6-5.16,9.59-8.53,16.37-8.53h113c11.05,0,20,8.95,20,20Z"/>
            <rect class="cls-2" x="355" y="219" width="153" height="99" rx="20" ry="20"/>
            <rect class="cls-2" x="521" y="219" width="153" height="99" rx="20" ry="20"/>
            <rect class="cls-2" x="188" y="68" width="153" height="99" rx="20" ry="20"/>
            <path class="cls-2"
                  d="M508,88v59c0,1.69-.21,3.32-.61,4.89-1.58,6.32-6.17,11.45-12.17,13.76-2.24.87-4.67,1.35-7.22,1.35h-113c-11.05,0-20-8.95-20-20v-59c0-1.08.09-2.13.25-3.16,1.02-6.41,5.07-11.79,10.64-14.64,2.73-1.41,5.83-2.2,9.11-2.2h113c11.05,0,20,8.95,20,20Z"/>
            <path class="cls-2"
                  d="M674,88v59c0,11.05-8.95,20-20,20h-113c-2.88,0-5.62-.61-8.09-1.71-7.02-3.1-11.91-10.12-11.91-18.29v-59c0-11.05,8.95-20,20-20h113c11.05,0,20,8.95,20,20Z"/>
            <polygon class="cls-3" points="144.88 68 73.84 167 51.69 167 122.73 68 144.88 68"/>
            <path class="cls-3"
                  d="M507.39,151.89c-1.58,6.32-6.17,11.45-12.17,13.76l-139.97-80.81c1.02-6.41,5.07-11.79,10.64-14.64l141.5,81.69Z"/>
            <path class="cls-3" d="M624.88,68l-71.04,99h-12.84c-2.88,0-5.62-.61-8.09-1.71l69.82-97.29h22.15Z"/>
            <path class="cls-3" d="M169.5,313.77c-3.64,3.84-8.79,6.23-14.5,6.23h-3.18l-71.04-99h22.15l66.57,92.77Z"/>
            <polygon class="cls-3" points="306.23 167 284.08 167 213.04 68 235.19 68 306.23 167"/>
            <path class="cls-3"
                  d="M341,292.98v5.02c0,4.96-1.81,9.5-4.8,12.99l-144.57-83.46c3.6-5.16,9.59-8.53,16.37-8.53h4.86l128.14,73.98Z"/>
        </g>
    </g>
</svg>