<?xml version="1.0" encoding="UTF-8"?>
<svg id="Layer_2" xmlns="http://www.w3.org/2000/svg" viewBox="0 0 158.03 115">
    <defs>
        <style>
            .cls-1 {
            fill: #bfa1a9;
            }

            .cls-2 {
            fill: #cfaeb7;
            }

            .cls-3 {
            fill: #d4b5bd;
            }

            .cls-4 {
            fill: #a69096;
            }

            .cls-5 {
            fill: #8a777c;
            }
        </style>
    </defs>
    <g id="Layer_2-2" data-name="Layer_2">
        <g>
            <circle class="cls-4" cx="57.5" cy="57.5" r="57.5"/>
            <circle class="cls-3" cx="70.5" cy="57.5" r="57.5"/>
            <g>
                <path class="cls-1"
                      d="M31.42,52.83c1.51-3.12,3.59-5.52,6.23-7.2,2.64-1.68,5.57-2.52,8.78-2.52,2.59,0,4.91.54,6.95,1.62,2.04,1.08,3.64,2.56,4.79,4.43v-18.43h14.18v53.28h-14.18v-5.62c-1.1,1.87-2.66,3.36-4.68,4.46-2.02,1.11-4.39,1.66-7.13,1.66-3.22,0-6.13-.84-8.75-2.52-2.62-1.68-4.68-4.09-6.19-7.24-1.51-3.14-2.27-6.8-2.27-10.98s.76-7.82,2.27-10.94ZM56.12,57.65c-1.42-1.49-3.16-2.23-5.22-2.23s-3.86.73-5.26,2.2c-1.39,1.46-2.09,3.52-2.09,6.16s.7,4.64,2.09,6.16c1.39,1.51,3.14,2.27,5.26,2.27s3.8-.74,5.22-2.23c1.42-1.49,2.12-3.55,2.12-6.19s-.71-4.63-2.12-6.12Z"/>
                <path class="cls-1"
                      d="M118.43,66.65h-26.71c.14,2.21.76,3.85,1.84,4.93,1.08,1.08,2.46,1.62,4.14,1.62,2.35,0,4.03-1.06,5.04-3.17h15.05c-.62,2.78-1.84,5.27-3.64,7.45-1.8,2.18-4.07,3.9-6.8,5.15-2.74,1.25-5.76,1.87-9.07,1.87-3.98,0-7.52-.84-10.62-2.52-3.1-1.68-5.52-4.08-7.27-7.2-1.75-3.12-2.63-6.79-2.63-11.02s.86-7.88,2.59-10.98c1.73-3.1,4.14-5.48,7.24-7.16,3.1-1.68,6.66-2.52,10.69-2.52s7.51.82,10.58,2.45c3.07,1.63,5.47,3.97,7.2,7.02,1.73,3.05,2.59,6.64,2.59,10.76,0,1.1-.07,2.21-.22,3.31ZM104.25,59.81c0-1.73-.58-3.08-1.73-4.07-1.15-.98-2.59-1.48-4.32-1.48s-3.14.47-4.25,1.4c-1.1.94-1.83,2.32-2.16,4.14h12.46Z"/>
                <path class="cls-1"
                      d="M131.5,82.67c-2.86-1.22-5.11-2.9-6.77-5.04-1.66-2.13-2.58-4.55-2.77-7.24h13.68c.19,1.3.79,2.3,1.8,3.02s2.26,1.08,3.74,1.08c1.15,0,2.06-.24,2.74-.72.67-.48,1.01-1.1,1.01-1.87,0-1.01-.55-1.75-1.66-2.23-1.1-.48-2.93-1.01-5.47-1.58-2.88-.58-5.28-1.22-7.2-1.94-1.92-.72-3.59-1.9-5-3.53-1.42-1.63-2.12-3.84-2.12-6.62,0-2.4.65-4.57,1.94-6.52,1.3-1.94,3.2-3.49,5.72-4.64,2.52-1.15,5.55-1.73,9.11-1.73,5.28,0,9.43,1.3,12.46,3.89,3.02,2.59,4.78,6,5.26,10.22h-12.74c-.24-1.3-.8-2.29-1.69-2.99-.89-.7-2.08-1.04-3.56-1.04-1.15,0-2.03.22-2.63.65-.6.43-.9,1.03-.9,1.8,0,.96.55,1.69,1.66,2.2,1.1.5,2.88,1.02,5.33,1.55,2.93.62,5.36,1.32,7.31,2.09,1.94.77,3.65,2,5.11,3.71,1.46,1.7,2.2,4.02,2.2,6.95,0,2.35-.68,4.46-2.05,6.34-1.37,1.87-3.31,3.35-5.83,4.43s-5.48,1.62-8.89,1.62c-3.65,0-6.9-.61-9.76-1.84Z"/>
            </g>
            <rect class="cls-5" x="58" y="33" width="13" height="10"/>
            <rect class="cls-5" x="58" y="73" width="13" height="10"/>
            <rect class="cls-4" x="57" y="32" width="13" height="10"/>
            <rect class="cls-4" x="57" y="72" width="13" height="10"/>
            <rect class="cls-4" x="63" y="42" width="1" height="30"/>
            <rect class="cls-1" x="58" y="33" width="11" height="8"/>
            <rect class="cls-1" x="58" y="73" width="11" height="8"/>
            <rect class="cls-2" x="59" y="34" width="3" height="2"/>
            <rect class="cls-2" x="65" y="74" width="3" height="2"/>
        </g>
    </g>
</svg>